<mxfile host="app.diagrams.net" agent="Mozilla/5.0 (Windows NT 10.0; Win64; x64) AppleWebKit/537.36 (KHTML, like Gecko) Chrome/137.0.0.0 Safari/537.36 Edg/137.0.0.0" version="27.2.0">
  <diagram name="PÃ¡gina-1" id="CkdQ_40eLKM1FDib4vKP">
    <mxGraphModel dx="1729" dy="742" grid="1" gridSize="10" guides="1" tooltips="1" connect="1" arrows="1" fold="1" page="0" pageScale="1" pageWidth="827" pageHeight="1169" background="none" math="0" shadow="0">
      <root>
        <mxCell id="0" />
        <mxCell id="1" parent="0" />
        <mxCell id="4qIM2cVefQbF1bmY9J0a-3" value="" style="ellipse;whiteSpace=wrap;html=1;aspect=fixed;fillColor=#f5f5f5;strokeColor=#666666;fontColor=#333333;" parent="1" vertex="1">
          <mxGeometry x="209" y="200" width="80" height="80" as="geometry" />
        </mxCell>
        <mxCell id="4qIM2cVefQbF1bmY9J0a-4" value="" style="ellipse;whiteSpace=wrap;html=1;aspect=fixed;fillColor=#f5f5f5;strokeColor=#666666;fontColor=#333333;" parent="1" vertex="1">
          <mxGeometry x="209" y="80" width="80" height="80" as="geometry" />
        </mxCell>
        <mxCell id="4qIM2cVefQbF1bmY9J0a-5" value="" style="ellipse;whiteSpace=wrap;html=1;aspect=fixed;fillColor=#f5f5f5;strokeColor=#666666;fontColor=#333333;" parent="1" vertex="1">
          <mxGeometry x="209" y="320" width="80" height="80" as="geometry" />
        </mxCell>
        <mxCell id="4qIM2cVefQbF1bmY9J0a-6" value="" style="ellipse;whiteSpace=wrap;html=1;aspect=fixed;fillColor=#f5f5f5;strokeColor=#666666;fontColor=#333333;" parent="1" vertex="1">
          <mxGeometry x="209" y="480" width="80" height="80" as="geometry" />
        </mxCell>
        <mxCell id="4qIM2cVefQbF1bmY9J0a-19" value="" style="ellipse;whiteSpace=wrap;html=1;aspect=fixed;fillColor=#d5e8d4;strokeColor=#82b366;" parent="1" vertex="1">
          <mxGeometry x="369" y="80" width="80" height="80" as="geometry" />
        </mxCell>
        <mxCell id="4qIM2cVefQbF1bmY9J0a-28" value="" style="endArrow=classic;html=1;rounded=0;exitX=1;exitY=0.5;exitDx=0;exitDy=0;entryX=0;entryY=0.5;entryDx=0;entryDy=0;" parent="1" source="4qIM2cVefQbF1bmY9J0a-4" edge="1">
          <mxGeometry width="50" height="50" relative="1" as="geometry">
            <mxPoint x="289" y="240" as="sourcePoint" />
            <mxPoint x="369.00000000001" y="120" as="targetPoint" />
          </mxGeometry>
        </mxCell>
        <mxCell id="4qIM2cVefQbF1bmY9J0a-31" value="" style="endArrow=classic;html=1;rounded=0;exitX=1;exitY=0.5;exitDx=0;exitDy=0;entryX=0;entryY=0.5;entryDx=0;entryDy=0;" parent="1" edge="1">
          <mxGeometry width="50" height="50" relative="1" as="geometry">
            <mxPoint x="289" y="239.76" as="sourcePoint" />
            <mxPoint x="369" y="239.76" as="targetPoint" />
          </mxGeometry>
        </mxCell>
        <mxCell id="4qIM2cVefQbF1bmY9J0a-37" value="" style="endArrow=classic;html=1;rounded=0;exitX=1;exitY=0.5;exitDx=0;exitDy=0;entryX=0;entryY=0.5;entryDx=0;entryDy=0;" parent="1" edge="1">
          <mxGeometry width="50" height="50" relative="1" as="geometry">
            <mxPoint x="289" y="359.76" as="sourcePoint" />
            <mxPoint x="369" y="359.76" as="targetPoint" />
          </mxGeometry>
        </mxCell>
        <mxCell id="4qIM2cVefQbF1bmY9J0a-40" value="" style="endArrow=classic;html=1;rounded=0;exitX=1;exitY=0.5;exitDx=0;exitDy=0;entryX=0;entryY=0.5;entryDx=0;entryDy=0;" parent="1" target="FGVWQjZt9ewmgZoG4UvB-36" edge="1">
          <mxGeometry width="50" height="50" relative="1" as="geometry">
            <mxPoint x="289" y="519.76" as="sourcePoint" />
            <mxPoint x="364" y="480" as="targetPoint" />
          </mxGeometry>
        </mxCell>
        <mxCell id="4qIM2cVefQbF1bmY9J0a-44" value="" style="endArrow=classic;html=1;rounded=0;exitX=1;exitY=0.5;exitDx=0;exitDy=0;entryX=0;entryY=0.5;entryDx=0;entryDy=0;" parent="1" source="4qIM2cVefQbF1bmY9J0a-4" target="FGVWQjZt9ewmgZoG4UvB-36" edge="1">
          <mxGeometry width="50" height="50" relative="1" as="geometry">
            <mxPoint x="299" y="130" as="sourcePoint" />
            <mxPoint x="364" y="450" as="targetPoint" />
          </mxGeometry>
        </mxCell>
        <mxCell id="4qIM2cVefQbF1bmY9J0a-45" value="" style="endArrow=classic;html=1;rounded=0;entryX=0;entryY=0.5;entryDx=0;entryDy=0;exitX=1;exitY=0.5;exitDx=0;exitDy=0;" parent="1" source="4qIM2cVefQbF1bmY9J0a-4" edge="1">
          <mxGeometry width="50" height="50" relative="1" as="geometry">
            <mxPoint x="309" y="140" as="sourcePoint" />
            <mxPoint x="369.00000000001" y="360.0000000000001" as="targetPoint" />
          </mxGeometry>
        </mxCell>
        <mxCell id="4qIM2cVefQbF1bmY9J0a-46" value="" style="endArrow=classic;html=1;rounded=0;exitX=1;exitY=0.5;exitDx=0;exitDy=0;entryX=0;entryY=0.5;entryDx=0;entryDy=0;" parent="1" source="4qIM2cVefQbF1bmY9J0a-4" edge="1">
          <mxGeometry width="50" height="50" relative="1" as="geometry">
            <mxPoint x="319" y="150" as="sourcePoint" />
            <mxPoint x="369.00000000001" y="240" as="targetPoint" />
          </mxGeometry>
        </mxCell>
        <mxCell id="4qIM2cVefQbF1bmY9J0a-47" value="" style="endArrow=classic;html=1;rounded=0;exitX=1;exitY=0.5;exitDx=0;exitDy=0;entryX=0;entryY=0.5;entryDx=0;entryDy=0;" parent="1" source="4qIM2cVefQbF1bmY9J0a-3" edge="1">
          <mxGeometry width="50" height="50" relative="1" as="geometry">
            <mxPoint x="329" y="160" as="sourcePoint" />
            <mxPoint x="369.00000000001" y="120" as="targetPoint" />
          </mxGeometry>
        </mxCell>
        <mxCell id="4qIM2cVefQbF1bmY9J0a-48" value="" style="endArrow=classic;html=1;rounded=0;exitX=1;exitY=0.5;exitDx=0;exitDy=0;entryX=0;entryY=0.5;entryDx=0;entryDy=0;" parent="1" source="4qIM2cVefQbF1bmY9J0a-3" target="FGVWQjZt9ewmgZoG4UvB-36" edge="1">
          <mxGeometry width="50" height="50" relative="1" as="geometry">
            <mxPoint x="339" y="170" as="sourcePoint" />
            <mxPoint x="364" y="460" as="targetPoint" />
          </mxGeometry>
        </mxCell>
        <mxCell id="4qIM2cVefQbF1bmY9J0a-49" value="" style="endArrow=classic;html=1;rounded=0;exitX=1;exitY=0.5;exitDx=0;exitDy=0;entryX=0;entryY=0.5;entryDx=0;entryDy=0;" parent="1" source="4qIM2cVefQbF1bmY9J0a-3" edge="1">
          <mxGeometry width="50" height="50" relative="1" as="geometry">
            <mxPoint x="349" y="180" as="sourcePoint" />
            <mxPoint x="369.00000000001" y="360.0000000000001" as="targetPoint" />
          </mxGeometry>
        </mxCell>
        <mxCell id="4qIM2cVefQbF1bmY9J0a-52" value="" style="endArrow=classic;html=1;rounded=0;exitX=1;exitY=0.5;exitDx=0;exitDy=0;entryX=0;entryY=0.5;entryDx=0;entryDy=0;" parent="1" source="4qIM2cVefQbF1bmY9J0a-5" target="FGVWQjZt9ewmgZoG4UvB-36" edge="1">
          <mxGeometry width="50" height="50" relative="1" as="geometry">
            <mxPoint x="309" y="470" as="sourcePoint" />
            <mxPoint x="354" y="470" as="targetPoint" />
          </mxGeometry>
        </mxCell>
        <mxCell id="4qIM2cVefQbF1bmY9J0a-54" value="" style="endArrow=classic;html=1;rounded=0;exitX=1;exitY=0.5;exitDx=0;exitDy=0;entryX=0;entryY=0.5;entryDx=0;entryDy=0;" parent="1" source="4qIM2cVefQbF1bmY9J0a-5" edge="1">
          <mxGeometry width="50" height="50" relative="1" as="geometry">
            <mxPoint x="369" y="520" as="sourcePoint" />
            <mxPoint x="369.00000000001" y="120" as="targetPoint" />
          </mxGeometry>
        </mxCell>
        <mxCell id="4qIM2cVefQbF1bmY9J0a-55" value="" style="endArrow=classic;html=1;rounded=0;exitX=1;exitY=0.5;exitDx=0;exitDy=0;entryX=0;entryY=0.5;entryDx=0;entryDy=0;" parent="1" source="4qIM2cVefQbF1bmY9J0a-5" edge="1">
          <mxGeometry width="50" height="50" relative="1" as="geometry">
            <mxPoint x="379" y="530" as="sourcePoint" />
            <mxPoint x="369.00000000001" y="240" as="targetPoint" />
          </mxGeometry>
        </mxCell>
        <mxCell id="4qIM2cVefQbF1bmY9J0a-56" value="" style="endArrow=classic;html=1;rounded=0;exitX=1;exitY=0.5;exitDx=0;exitDy=0;entryX=0;entryY=0.5;entryDx=0;entryDy=0;" parent="1" source="4qIM2cVefQbF1bmY9J0a-6" edge="1">
          <mxGeometry width="50" height="50" relative="1" as="geometry">
            <mxPoint x="329" y="480" as="sourcePoint" />
            <mxPoint x="369.00000000001" y="360.0000000000001" as="targetPoint" />
          </mxGeometry>
        </mxCell>
        <mxCell id="4qIM2cVefQbF1bmY9J0a-57" value="" style="endArrow=classic;html=1;rounded=0;exitX=1;exitY=0.5;exitDx=0;exitDy=0;entryX=0;entryY=0.5;entryDx=0;entryDy=0;" parent="1" source="4qIM2cVefQbF1bmY9J0a-6" edge="1">
          <mxGeometry width="50" height="50" relative="1" as="geometry">
            <mxPoint x="329" y="480" as="sourcePoint" />
            <mxPoint x="369.00000000001" y="240" as="targetPoint" />
          </mxGeometry>
        </mxCell>
        <mxCell id="4qIM2cVefQbF1bmY9J0a-58" value="" style="endArrow=classic;html=1;rounded=0;exitX=1;exitY=0.5;exitDx=0;exitDy=0;entryX=0;entryY=0.5;entryDx=0;entryDy=0;" parent="1" source="4qIM2cVefQbF1bmY9J0a-6" edge="1">
          <mxGeometry width="50" height="50" relative="1" as="geometry">
            <mxPoint x="389" y="540" as="sourcePoint" />
            <mxPoint x="369.00000000001" y="120" as="targetPoint" />
          </mxGeometry>
        </mxCell>
        <mxCell id="4qIM2cVefQbF1bmY9J0a-155" value="" style="shape=waypoint;sketch=0;fillStyle=solid;size=6;pointerEvents=1;points=[];fillColor=none;resizable=0;rotatable=0;perimeter=centerPerimeter;snapToPoint=1;" parent="1" vertex="1">
          <mxGeometry x="239" y="410" width="20" height="20" as="geometry" />
        </mxCell>
        <mxCell id="4qIM2cVefQbF1bmY9J0a-156" value="" style="shape=waypoint;sketch=0;fillStyle=solid;size=6;pointerEvents=1;points=[];fillColor=none;resizable=0;rotatable=0;perimeter=centerPerimeter;snapToPoint=1;" parent="1" vertex="1">
          <mxGeometry x="239" y="429" width="20" height="20" as="geometry" />
        </mxCell>
        <mxCell id="4qIM2cVefQbF1bmY9J0a-157" value="" style="shape=waypoint;sketch=0;fillStyle=solid;size=6;pointerEvents=1;points=[];fillColor=none;resizable=0;rotatable=0;perimeter=centerPerimeter;snapToPoint=1;" parent="1" vertex="1">
          <mxGeometry x="239" y="449" width="20" height="20" as="geometry" />
        </mxCell>
        <mxCell id="4qIM2cVefQbF1bmY9J0a-169" value="" style="endArrow=classic;html=1;rounded=0;entryX=0;entryY=0.5;entryDx=0;entryDy=0;" parent="1" edge="1">
          <mxGeometry width="50" height="50" relative="1" as="geometry">
            <mxPoint x="449" y="120.88" as="sourcePoint" />
            <mxPoint x="489" y="120.88" as="targetPoint" />
          </mxGeometry>
        </mxCell>
        <mxCell id="4qIM2cVefQbF1bmY9J0a-170" value="Input Layer" style="text;html=1;align=center;verticalAlign=middle;resizable=0;points=[];autosize=1;strokeColor=none;fillColor=none;fontSize=16;fontStyle=1" parent="1" vertex="1">
          <mxGeometry x="28" y="560" width="110" height="30" as="geometry" />
        </mxCell>
        <mxCell id="4qIM2cVefQbF1bmY9J0a-171" value="Hidden Layers" style="text;html=1;align=center;verticalAlign=middle;resizable=0;points=[];autosize=1;strokeColor=none;fillColor=none;fontSize=16;fontStyle=1" parent="1" vertex="1">
          <mxGeometry x="179" y="560" width="130" height="30" as="geometry" />
        </mxCell>
        <mxCell id="4qIM2cVefQbF1bmY9J0a-172" value="Output Layer" style="text;html=1;align=center;verticalAlign=middle;resizable=0;points=[];autosize=1;strokeColor=none;fillColor=none;fontSize=16;fontStyle=1" parent="1" vertex="1">
          <mxGeometry x="349" y="560" width="120" height="30" as="geometry" />
        </mxCell>
        <mxCell id="4qIM2cVefQbF1bmY9J0a-175" value="Geological Unit 1" style="text;html=1;align=center;verticalAlign=middle;resizable=0;points=[];autosize=1;strokeColor=none;fillColor=none;fontSize=16;" parent="1" vertex="1">
          <mxGeometry x="484" y="106" width="150" height="30" as="geometry" />
        </mxCell>
        <mxCell id="RCf1zZOmux3i1M2k7Inm-12" value="" style="endArrow=none;html=1;rounded=0;entryX=0.5;entryY=0;entryDx=0;entryDy=0;exitX=0.5;exitY=1;exitDx=0;exitDy=0;" parent="1" source="4qIM2cVefQbF1bmY9J0a-4" target="4qIM2cVefQbF1bmY9J0a-4" edge="1">
          <mxGeometry width="50" height="50" relative="1" as="geometry">
            <mxPoint x="465" y="418" as="sourcePoint" />
            <mxPoint x="515" y="368" as="targetPoint" />
          </mxGeometry>
        </mxCell>
        <mxCell id="RCf1zZOmux3i1M2k7Inm-13" value="" style="endArrow=none;html=1;rounded=0;exitX=0.5;exitY=1;exitDx=0;exitDy=0;entryX=0.5;entryY=0;entryDx=0;entryDy=0;" parent="1" source="4qIM2cVefQbF1bmY9J0a-3" target="4qIM2cVefQbF1bmY9J0a-3" edge="1">
          <mxGeometry width="50" height="50" relative="1" as="geometry">
            <mxPoint x="246" y="280" as="sourcePoint" />
            <mxPoint x="252" y="220" as="targetPoint" />
          </mxGeometry>
        </mxCell>
        <mxCell id="RCf1zZOmux3i1M2k7Inm-15" value="" style="endArrow=none;html=1;rounded=0;exitX=0.5;exitY=1;exitDx=0;exitDy=0;entryX=0.5;entryY=0;entryDx=0;entryDy=0;" parent="1" source="4qIM2cVefQbF1bmY9J0a-5" target="4qIM2cVefQbF1bmY9J0a-5" edge="1">
          <mxGeometry width="50" height="50" relative="1" as="geometry">
            <mxPoint x="259" y="290" as="sourcePoint" />
            <mxPoint x="259" y="210" as="targetPoint" />
          </mxGeometry>
        </mxCell>
        <mxCell id="RCf1zZOmux3i1M2k7Inm-16" value="" style="endArrow=none;html=1;rounded=0;exitX=0.5;exitY=1;exitDx=0;exitDy=0;entryX=0.5;entryY=0;entryDx=0;entryDy=0;" parent="1" source="4qIM2cVefQbF1bmY9J0a-6" target="4qIM2cVefQbF1bmY9J0a-6" edge="1">
          <mxGeometry width="50" height="50" relative="1" as="geometry">
            <mxPoint x="269" y="300" as="sourcePoint" />
            <mxPoint x="269" y="220" as="targetPoint" />
          </mxGeometry>
        </mxCell>
        <mxCell id="RCf1zZOmux3i1M2k7Inm-29" value="&lt;font style=&quot;font-size: 11px;&quot;&gt;&lt;b style=&quot;font-size: 11px;&quot;&gt;&lt;span style=&quot;font-size: 11px;&quot;&gt;Î£&lt;sup style=&quot;font-size: 11px;&quot;&gt;1&lt;/sup&gt;&lt;/span&gt;&lt;span style=&quot;font-size: 11px;&quot;&gt;&lt;sub style=&quot;font-size: 11px;&quot;&gt;1&lt;/sub&gt;&lt;/span&gt;&lt;/b&gt;&lt;/font&gt;" style="text;html=1;align=center;verticalAlign=middle;resizable=0;points=[];autosize=1;strokeColor=none;fillColor=none;fontSize=11;" parent="1" vertex="1">
          <mxGeometry x="215" y="103.5" width="37" height="33" as="geometry" />
        </mxCell>
        <mxCell id="RCf1zZOmux3i1M2k7Inm-30" value="&lt;font style=&quot;font-size: 11px;&quot;&gt;&lt;b style=&quot;font-size: 11px;&quot;&gt;&lt;span style=&quot;font-size: 11px;&quot;&gt;Î£&lt;sup style=&quot;font-size: 11px;&quot;&gt;1&lt;/sup&gt;&lt;/span&gt;&lt;span style=&quot;font-size: 11px;&quot;&gt;&lt;sub style=&quot;font-size: 11px;&quot;&gt;2&lt;/sub&gt;&lt;/span&gt;&lt;/b&gt;&lt;/font&gt;" style="text;html=1;align=center;verticalAlign=middle;resizable=0;points=[];autosize=1;strokeColor=none;fillColor=none;fontSize=11;" parent="1" vertex="1">
          <mxGeometry x="213" y="223.5" width="37" height="33" as="geometry" />
        </mxCell>
        <mxCell id="RCf1zZOmux3i1M2k7Inm-31" value="&lt;font style=&quot;font-size: 11px;&quot;&gt;&lt;b style=&quot;font-size: 11px;&quot;&gt;&lt;span style=&quot;font-size: 11px;&quot;&gt;Î£&lt;sup style=&quot;font-size: 11px;&quot;&gt;1&lt;/sup&gt;&lt;/span&gt;&lt;span style=&quot;font-size: 11px;&quot;&gt;&lt;sub style=&quot;font-size: 11px;&quot;&gt;3&lt;/sub&gt;&lt;/span&gt;&lt;/b&gt;&lt;/font&gt;" style="text;html=1;align=center;verticalAlign=middle;resizable=0;points=[];autosize=1;strokeColor=none;fillColor=none;fontSize=11;" parent="1" vertex="1">
          <mxGeometry x="215" y="344" width="37" height="33" as="geometry" />
        </mxCell>
        <mxCell id="RCf1zZOmux3i1M2k7Inm-32" value="&lt;font style=&quot;font-size: 11px;&quot;&gt;&lt;b style=&quot;font-size: 11px;&quot;&gt;&lt;span style=&quot;font-size: 11px;&quot;&gt;Î£&lt;sup style=&quot;font-size: 11px;&quot;&gt;1&lt;/sup&gt;&lt;/span&gt;&lt;sub style=&quot;font-size: 11px;&quot;&gt;&lt;font style=&quot;font-size: 11px;&quot;&gt;n&lt;/font&gt;&lt;/sub&gt;&lt;/b&gt;&lt;/font&gt;" style="text;html=1;align=center;verticalAlign=middle;resizable=0;points=[];autosize=1;strokeColor=none;fillColor=none;fontSize=11;" parent="1" vertex="1">
          <mxGeometry x="211" y="506.5" width="40" height="30" as="geometry" />
        </mxCell>
        <mxCell id="RCf1zZOmux3i1M2k7Inm-45" value="&lt;span style=&quot;font-size: 11px;&quot;&gt;&lt;b style=&quot;font-size: 11px;&quot;&gt;f()&lt;/b&gt;&lt;/span&gt;" style="text;html=1;align=center;verticalAlign=middle;resizable=0;points=[];autosize=1;strokeColor=none;fillColor=none;fontSize=11;" parent="1" vertex="1">
          <mxGeometry x="252" y="108.5" width="29" height="25" as="geometry" />
        </mxCell>
        <mxCell id="RCf1zZOmux3i1M2k7Inm-46" value="&lt;b style=&quot;border-color: var(--border-color); font-size: 11px;&quot;&gt;f()&lt;/b&gt;" style="text;html=1;align=center;verticalAlign=middle;resizable=0;points=[];autosize=1;strokeColor=none;fillColor=none;fontSize=11;" parent="1" vertex="1">
          <mxGeometry x="250" y="228.5" width="29" height="25" as="geometry" />
        </mxCell>
        <mxCell id="RCf1zZOmux3i1M2k7Inm-47" value="&lt;b style=&quot;border-color: var(--border-color); font-size: 11px;&quot;&gt;f()&lt;/b&gt;" style="text;html=1;align=center;verticalAlign=middle;resizable=0;points=[];autosize=1;strokeColor=none;fillColor=none;fontSize=11;" parent="1" vertex="1">
          <mxGeometry x="252" y="349" width="29" height="25" as="geometry" />
        </mxCell>
        <mxCell id="RCf1zZOmux3i1M2k7Inm-48" value="&lt;b style=&quot;border-color: var(--border-color); font-size: 11px;&quot;&gt;f()&lt;/b&gt;" style="text;html=1;align=center;verticalAlign=middle;resizable=0;points=[];autosize=1;strokeColor=none;fillColor=none;fontSize=11;" parent="1" vertex="1">
          <mxGeometry x="253" y="508.5" width="29" height="25" as="geometry" />
        </mxCell>
        <mxCell id="FGVWQjZt9ewmgZoG4UvB-2" value="" style="rhombus;whiteSpace=wrap;html=1;fillColor=#f8cecc;strokeColor=#b85450;rounded=1;" parent="1" vertex="1">
          <mxGeometry x="43" y="80" width="80" height="80" as="geometry" />
        </mxCell>
        <mxCell id="FGVWQjZt9ewmgZoG4UvB-12" value="" style="endArrow=classic;html=1;rounded=0;entryX=0;entryY=0.5;entryDx=0;entryDy=0;" parent="1" edge="1">
          <mxGeometry width="50" height="50" relative="1" as="geometry">
            <mxPoint x="3" y="120.38000000000001" as="sourcePoint" />
            <mxPoint x="43" y="120.38000000000001" as="targetPoint" />
          </mxGeometry>
        </mxCell>
        <mxCell id="FGVWQjZt9ewmgZoG4UvB-13" value="Secundarity&lt;div&gt;Variable&lt;/div&gt;" style="text;html=1;align=center;verticalAlign=middle;resizable=0;points=[];autosize=1;strokeColor=none;fillColor=none;fontSize=16;" parent="1" vertex="1">
          <mxGeometry x="-110" y="96" width="110" height="50" as="geometry" />
        </mxCell>
        <mxCell id="FGVWQjZt9ewmgZoG4UvB-24" value="" style="endArrow=classic;html=1;rounded=0;exitX=1;exitY=0.5;exitDx=0;exitDy=0;entryX=0;entryY=0.5;entryDx=0;entryDy=0;" parent="1" source="FGVWQjZt9ewmgZoG4UvB-2" target="4qIM2cVefQbF1bmY9J0a-6" edge="1">
          <mxGeometry width="50" height="50" relative="1" as="geometry">
            <mxPoint x="173" y="232" as="sourcePoint" />
            <mxPoint x="330" y="490" as="targetPoint" />
          </mxGeometry>
        </mxCell>
        <mxCell id="FGVWQjZt9ewmgZoG4UvB-25" value="" style="endArrow=classic;html=1;rounded=0;exitX=1;exitY=0.5;exitDx=0;exitDy=0;entryX=0;entryY=0.5;entryDx=0;entryDy=0;" parent="1" source="FGVWQjZt9ewmgZoG4UvB-2" target="4qIM2cVefQbF1bmY9J0a-5" edge="1">
          <mxGeometry width="50" height="50" relative="1" as="geometry">
            <mxPoint x="183" y="242" as="sourcePoint" />
            <mxPoint x="340" y="500" as="targetPoint" />
          </mxGeometry>
        </mxCell>
        <mxCell id="FGVWQjZt9ewmgZoG4UvB-26" value="" style="endArrow=classic;html=1;rounded=0;exitX=1;exitY=0.5;exitDx=0;exitDy=0;entryX=0;entryY=0.5;entryDx=0;entryDy=0;" parent="1" source="FGVWQjZt9ewmgZoG4UvB-2" target="4qIM2cVefQbF1bmY9J0a-3" edge="1">
          <mxGeometry width="50" height="50" relative="1" as="geometry">
            <mxPoint x="193" y="252" as="sourcePoint" />
            <mxPoint x="350" y="510" as="targetPoint" />
          </mxGeometry>
        </mxCell>
        <mxCell id="FGVWQjZt9ewmgZoG4UvB-27" value="" style="endArrow=classic;html=1;rounded=0;exitX=1;exitY=0.5;exitDx=0;exitDy=0;entryX=0;entryY=0.5;entryDx=0;entryDy=0;" parent="1" source="FGVWQjZt9ewmgZoG4UvB-2" target="4qIM2cVefQbF1bmY9J0a-4" edge="1">
          <mxGeometry width="50" height="50" relative="1" as="geometry">
            <mxPoint x="203" y="262" as="sourcePoint" />
            <mxPoint x="360" y="520" as="targetPoint" />
          </mxGeometry>
        </mxCell>
        <mxCell id="FGVWQjZt9ewmgZoG4UvB-34" value="" style="ellipse;whiteSpace=wrap;html=1;aspect=fixed;fillColor=#d5e8d4;strokeColor=#82b366;" parent="1" vertex="1">
          <mxGeometry x="369" y="201" width="80" height="80" as="geometry" />
        </mxCell>
        <mxCell id="FGVWQjZt9ewmgZoG4UvB-35" value="" style="ellipse;whiteSpace=wrap;html=1;aspect=fixed;fillColor=#d5e8d4;strokeColor=#82b366;" parent="1" vertex="1">
          <mxGeometry x="369" y="321.5" width="80" height="80" as="geometry" />
        </mxCell>
        <mxCell id="FGVWQjZt9ewmgZoG4UvB-36" value="" style="ellipse;whiteSpace=wrap;html=1;aspect=fixed;fillColor=#d5e8d4;strokeColor=#82b366;" parent="1" vertex="1">
          <mxGeometry x="369" y="480" width="80" height="80" as="geometry" />
        </mxCell>
        <mxCell id="FGVWQjZt9ewmgZoG4UvB-39" value="" style="endArrow=classic;html=1;rounded=0;entryX=0;entryY=0.5;entryDx=0;entryDy=0;" parent="1" edge="1">
          <mxGeometry width="50" height="50" relative="1" as="geometry">
            <mxPoint x="449" y="240.88" as="sourcePoint" />
            <mxPoint x="489" y="240.88" as="targetPoint" />
          </mxGeometry>
        </mxCell>
        <mxCell id="FGVWQjZt9ewmgZoG4UvB-41" value="" style="endArrow=classic;html=1;rounded=0;entryX=0;entryY=0.5;entryDx=0;entryDy=0;" parent="1" edge="1">
          <mxGeometry width="50" height="50" relative="1" as="geometry">
            <mxPoint x="449" y="361.38" as="sourcePoint" />
            <mxPoint x="489" y="361.38" as="targetPoint" />
          </mxGeometry>
        </mxCell>
        <mxCell id="FGVWQjZt9ewmgZoG4UvB-43" value="" style="endArrow=classic;html=1;rounded=0;entryX=0;entryY=0.5;entryDx=0;entryDy=0;" parent="1" edge="1">
          <mxGeometry width="50" height="50" relative="1" as="geometry">
            <mxPoint x="449" y="519.88" as="sourcePoint" />
            <mxPoint x="489" y="519.88" as="targetPoint" />
          </mxGeometry>
        </mxCell>
        <mxCell id="FGVWQjZt9ewmgZoG4UvB-45" value="" style="rhombus;whiteSpace=wrap;html=1;fillColor=#e1d5e7;strokeColor=#9673a6;rounded=1;" parent="1" vertex="1">
          <mxGeometry x="43" y="200" width="80" height="80" as="geometry" />
        </mxCell>
        <mxCell id="FGVWQjZt9ewmgZoG4UvB-46" value="" style="endArrow=classic;html=1;rounded=0;entryX=0;entryY=0.5;entryDx=0;entryDy=0;" parent="1" edge="1">
          <mxGeometry width="50" height="50" relative="1" as="geometry">
            <mxPoint x="3" y="240.87" as="sourcePoint" />
            <mxPoint x="43" y="240.87" as="targetPoint" />
          </mxGeometry>
        </mxCell>
        <mxCell id="FGVWQjZt9ewmgZoG4UvB-48" value="" style="rhombus;whiteSpace=wrap;html=1;fillColor=#e1d5e7;strokeColor=#9673a6;rounded=1;" parent="1" vertex="1">
          <mxGeometry x="43" y="320" width="80" height="80" as="geometry" />
        </mxCell>
        <mxCell id="FGVWQjZt9ewmgZoG4UvB-49" value="" style="endArrow=classic;html=1;rounded=0;entryX=0;entryY=0.5;entryDx=0;entryDy=0;" parent="1" edge="1">
          <mxGeometry width="50" height="50" relative="1" as="geometry">
            <mxPoint x="3" y="360.87" as="sourcePoint" />
            <mxPoint x="43" y="360.87" as="targetPoint" />
          </mxGeometry>
        </mxCell>
        <mxCell id="FGVWQjZt9ewmgZoG4UvB-51" value="" style="rhombus;whiteSpace=wrap;html=1;fillColor=#e1d5e7;strokeColor=#9673a6;rounded=1;" parent="1" vertex="1">
          <mxGeometry x="43" y="480" width="80" height="80" as="geometry" />
        </mxCell>
        <mxCell id="FGVWQjZt9ewmgZoG4UvB-52" value="" style="endArrow=classic;html=1;rounded=0;entryX=0;entryY=0.5;entryDx=0;entryDy=0;" parent="1" edge="1">
          <mxGeometry width="50" height="50" relative="1" as="geometry">
            <mxPoint x="3" y="520.88" as="sourcePoint" />
            <mxPoint x="43" y="520.88" as="targetPoint" />
          </mxGeometry>
        </mxCell>
        <mxCell id="fp-WoqwSif0-ZGopf9bZ-1" value="" style="endArrow=classic;html=1;rounded=0;exitX=1;exitY=0.5;exitDx=0;exitDy=0;entryX=0;entryY=0.5;entryDx=0;entryDy=0;" parent="1" source="FGVWQjZt9ewmgZoG4UvB-45" target="4qIM2cVefQbF1bmY9J0a-6" edge="1">
          <mxGeometry width="50" height="50" relative="1" as="geometry">
            <mxPoint x="133" y="330" as="sourcePoint" />
            <mxPoint x="280" y="440" as="targetPoint" />
          </mxGeometry>
        </mxCell>
        <mxCell id="fp-WoqwSif0-ZGopf9bZ-2" value="" style="endArrow=classic;html=1;rounded=0;exitX=1;exitY=0.5;exitDx=0;exitDy=0;entryX=0;entryY=0.5;entryDx=0;entryDy=0;" parent="1" source="FGVWQjZt9ewmgZoG4UvB-45" target="4qIM2cVefQbF1bmY9J0a-5" edge="1">
          <mxGeometry width="50" height="50" relative="1" as="geometry">
            <mxPoint x="133" y="410" as="sourcePoint" />
            <mxPoint x="290" y="450" as="targetPoint" />
          </mxGeometry>
        </mxCell>
        <mxCell id="fp-WoqwSif0-ZGopf9bZ-3" value="" style="endArrow=classic;html=1;rounded=0;exitX=1;exitY=0.5;exitDx=0;exitDy=0;entryX=0;entryY=0.5;entryDx=0;entryDy=0;" parent="1" source="FGVWQjZt9ewmgZoG4UvB-45" target="4qIM2cVefQbF1bmY9J0a-3" edge="1">
          <mxGeometry width="50" height="50" relative="1" as="geometry">
            <mxPoint x="143" y="420" as="sourcePoint" />
            <mxPoint x="300" y="460" as="targetPoint" />
          </mxGeometry>
        </mxCell>
        <mxCell id="fp-WoqwSif0-ZGopf9bZ-4" value="" style="endArrow=classic;html=1;rounded=0;exitX=1;exitY=0.5;exitDx=0;exitDy=0;entryX=0;entryY=0.5;entryDx=0;entryDy=0;" parent="1" source="FGVWQjZt9ewmgZoG4UvB-45" target="4qIM2cVefQbF1bmY9J0a-4" edge="1">
          <mxGeometry width="50" height="50" relative="1" as="geometry">
            <mxPoint x="153" y="430" as="sourcePoint" />
            <mxPoint x="310" y="470" as="targetPoint" />
          </mxGeometry>
        </mxCell>
        <mxCell id="fp-WoqwSif0-ZGopf9bZ-5" value="" style="endArrow=classic;html=1;rounded=0;exitX=1;exitY=0.5;exitDx=0;exitDy=0;entryX=0;entryY=0.5;entryDx=0;entryDy=0;" parent="1" source="FGVWQjZt9ewmgZoG4UvB-48" target="4qIM2cVefQbF1bmY9J0a-6" edge="1">
          <mxGeometry width="50" height="50" relative="1" as="geometry">
            <mxPoint x="163" y="440" as="sourcePoint" />
            <mxPoint x="320" y="480" as="targetPoint" />
          </mxGeometry>
        </mxCell>
        <mxCell id="fp-WoqwSif0-ZGopf9bZ-6" value="" style="endArrow=classic;html=1;rounded=0;exitX=1;exitY=0.5;exitDx=0;exitDy=0;entryX=0;entryY=0.5;entryDx=0;entryDy=0;" parent="1" source="FGVWQjZt9ewmgZoG4UvB-48" target="4qIM2cVefQbF1bmY9J0a-5" edge="1">
          <mxGeometry width="50" height="50" relative="1" as="geometry">
            <mxPoint x="173" y="450" as="sourcePoint" />
            <mxPoint x="330" y="490" as="targetPoint" />
          </mxGeometry>
        </mxCell>
        <mxCell id="fp-WoqwSif0-ZGopf9bZ-7" value="" style="endArrow=classic;html=1;rounded=0;exitX=1;exitY=0.5;exitDx=0;exitDy=0;entryX=0;entryY=0.5;entryDx=0;entryDy=0;" parent="1" source="FGVWQjZt9ewmgZoG4UvB-48" target="4qIM2cVefQbF1bmY9J0a-3" edge="1">
          <mxGeometry width="50" height="50" relative="1" as="geometry">
            <mxPoint x="183" y="460" as="sourcePoint" />
            <mxPoint x="230" y="240" as="targetPoint" />
          </mxGeometry>
        </mxCell>
        <mxCell id="fp-WoqwSif0-ZGopf9bZ-8" value="" style="endArrow=classic;html=1;rounded=0;exitX=1;exitY=0.5;exitDx=0;exitDy=0;entryX=0;entryY=0.5;entryDx=0;entryDy=0;" parent="1" source="FGVWQjZt9ewmgZoG4UvB-48" target="4qIM2cVefQbF1bmY9J0a-4" edge="1">
          <mxGeometry width="50" height="50" relative="1" as="geometry">
            <mxPoint x="193" y="470" as="sourcePoint" />
            <mxPoint x="350" y="510" as="targetPoint" />
          </mxGeometry>
        </mxCell>
        <mxCell id="fp-WoqwSif0-ZGopf9bZ-9" value="" style="endArrow=classic;html=1;rounded=0;exitX=1;exitY=0.5;exitDx=0;exitDy=0;entryX=0;entryY=0.5;entryDx=0;entryDy=0;" parent="1" source="FGVWQjZt9ewmgZoG4UvB-51" target="4qIM2cVefQbF1bmY9J0a-6" edge="1">
          <mxGeometry width="50" height="50" relative="1" as="geometry">
            <mxPoint x="203" y="480" as="sourcePoint" />
            <mxPoint x="290" y="530" as="targetPoint" />
          </mxGeometry>
        </mxCell>
        <mxCell id="fp-WoqwSif0-ZGopf9bZ-10" value="" style="endArrow=classic;html=1;rounded=0;exitX=1;exitY=0.5;exitDx=0;exitDy=0;entryX=0;entryY=0.5;entryDx=0;entryDy=0;" parent="1" source="FGVWQjZt9ewmgZoG4UvB-51" edge="1" target="4qIM2cVefQbF1bmY9J0a-5">
          <mxGeometry width="50" height="50" relative="1" as="geometry">
            <mxPoint x="213" y="490" as="sourcePoint" />
            <mxPoint x="290" y="240" as="targetPoint" />
          </mxGeometry>
        </mxCell>
        <mxCell id="fp-WoqwSif0-ZGopf9bZ-11" value="" style="endArrow=classic;html=1;rounded=0;exitX=1;exitY=0.5;exitDx=0;exitDy=0;entryX=0;entryY=0.5;entryDx=0;entryDy=0;" parent="1" source="FGVWQjZt9ewmgZoG4UvB-51" target="4qIM2cVefQbF1bmY9J0a-4" edge="1">
          <mxGeometry width="50" height="50" relative="1" as="geometry">
            <mxPoint x="223" y="500" as="sourcePoint" />
            <mxPoint x="280" y="160" as="targetPoint" />
          </mxGeometry>
        </mxCell>
        <mxCell id="fp-WoqwSif0-ZGopf9bZ-12" value="" style="endArrow=classic;html=1;rounded=0;exitX=1;exitY=0.5;exitDx=0;exitDy=0;entryX=0;entryY=0.5;entryDx=0;entryDy=0;" parent="1" source="FGVWQjZt9ewmgZoG4UvB-51" target="4qIM2cVefQbF1bmY9J0a-3" edge="1">
          <mxGeometry width="50" height="50" relative="1" as="geometry">
            <mxPoint x="138" y="560" as="sourcePoint" />
            <mxPoint x="310" y="120" as="targetPoint" />
          </mxGeometry>
        </mxCell>
        <mxCell id="ZzaWuEjNu4GClE18ALnd-1" value="Geological Unit 2" style="text;html=1;align=center;verticalAlign=middle;resizable=0;points=[];autosize=1;strokeColor=none;fillColor=none;fontSize=16;" parent="1" vertex="1">
          <mxGeometry x="484" y="226.5" width="150" height="30" as="geometry" />
        </mxCell>
        <mxCell id="ZzaWuEjNu4GClE18ALnd-2" value="Geological Unit 3" style="text;html=1;align=center;verticalAlign=middle;resizable=0;points=[];autosize=1;strokeColor=none;fillColor=none;fontSize=16;" parent="1" vertex="1">
          <mxGeometry x="484" y="345.5" width="150" height="30" as="geometry" />
        </mxCell>
        <mxCell id="ZzaWuEjNu4GClE18ALnd-3" value="Geological Unit N" style="text;html=1;align=center;verticalAlign=middle;resizable=0;points=[];autosize=1;strokeColor=none;fillColor=none;fontSize=16;" parent="1" vertex="1">
          <mxGeometry x="484" y="505" width="150" height="30" as="geometry" />
        </mxCell>
        <mxCell id="kr8a4thcptvr2PMCqoy7-3" value="" style="shape=waypoint;sketch=0;fillStyle=solid;size=6;pointerEvents=1;points=[];fillColor=none;resizable=0;rotatable=0;perimeter=centerPerimeter;snapToPoint=1;" vertex="1" parent="1">
          <mxGeometry x="399" y="415" width="20" height="20" as="geometry" />
        </mxCell>
        <mxCell id="kr8a4thcptvr2PMCqoy7-4" value="" style="shape=waypoint;sketch=0;fillStyle=solid;size=6;pointerEvents=1;points=[];fillColor=none;resizable=0;rotatable=0;perimeter=centerPerimeter;snapToPoint=1;" vertex="1" parent="1">
          <mxGeometry x="399" y="434" width="20" height="20" as="geometry" />
        </mxCell>
        <mxCell id="kr8a4thcptvr2PMCqoy7-5" value="" style="shape=waypoint;sketch=0;fillStyle=solid;size=6;pointerEvents=1;points=[];fillColor=none;resizable=0;rotatable=0;perimeter=centerPerimeter;snapToPoint=1;" vertex="1" parent="1">
          <mxGeometry x="399" y="454" width="20" height="20" as="geometry" />
        </mxCell>
        <mxCell id="kr8a4thcptvr2PMCqoy7-6" value="" style="shape=waypoint;sketch=0;fillStyle=solid;size=6;pointerEvents=1;points=[];fillColor=none;resizable=0;rotatable=0;perimeter=centerPerimeter;snapToPoint=1;" vertex="1" parent="1">
          <mxGeometry x="73" y="410" width="20" height="20" as="geometry" />
        </mxCell>
        <mxCell id="kr8a4thcptvr2PMCqoy7-7" value="" style="shape=waypoint;sketch=0;fillStyle=solid;size=6;pointerEvents=1;points=[];fillColor=none;resizable=0;rotatable=0;perimeter=centerPerimeter;snapToPoint=1;" vertex="1" parent="1">
          <mxGeometry x="73" y="429" width="20" height="20" as="geometry" />
        </mxCell>
        <mxCell id="kr8a4thcptvr2PMCqoy7-8" value="" style="shape=waypoint;sketch=0;fillStyle=solid;size=6;pointerEvents=1;points=[];fillColor=none;resizable=0;rotatable=0;perimeter=centerPerimeter;snapToPoint=1;" vertex="1" parent="1">
          <mxGeometry x="73" y="449" width="20" height="20" as="geometry" />
        </mxCell>
        <mxCell id="kr8a4thcptvr2PMCqoy7-10" value="SDF 1" style="text;html=1;align=center;verticalAlign=middle;resizable=0;points=[];autosize=1;strokeColor=none;fillColor=none;fontSize=16;" vertex="1" parent="1">
          <mxGeometry x="-70" y="223.5" width="70" height="30" as="geometry" />
        </mxCell>
        <mxCell id="kr8a4thcptvr2PMCqoy7-11" value="SDF 2" style="text;html=1;align=center;verticalAlign=middle;resizable=0;points=[];autosize=1;strokeColor=none;fillColor=none;fontSize=16;" vertex="1" parent="1">
          <mxGeometry x="-70" y="346.5" width="70" height="30" as="geometry" />
        </mxCell>
        <mxCell id="kr8a4thcptvr2PMCqoy7-12" value="SDF N" style="text;html=1;align=center;verticalAlign=middle;resizable=0;points=[];autosize=1;strokeColor=none;fillColor=none;fontSize=16;" vertex="1" parent="1">
          <mxGeometry x="-70" y="506.5" width="70" height="30" as="geometry" />
        </mxCell>
      </root>
    </mxGraphModel>
  </diagram>
</mxfile>
